<svg width="149" height="26" viewBox="0 0 149 26" fill="none" xmlns="http://www.w3.org/2000/svg">
<g clip-path="url(#clip0_1_348)">
<path d="M38.4609 7.53282V10.7244H35.6891V21.2484H32.197V10.7244H29.5588V7.53282H32.197V4.24585L35.6891 3.48254V7.52805H38.4609V7.53282Z" fill="#0F1020"/>
<path d="M42.8212 9.54125C43.8851 8.05758 45.2113 7.30859 46.8285 7.30859V10.92C44.2906 10.92 42.8212 12.3798 42.8212 14.7031V21.2436H39.3291V7.53281H42.8212V9.54125Z" fill="#0F1020"/>
<path d="M56.8327 7.53284H60.3248V21.2484H56.8327V19.5787C55.7689 20.9049 54.3901 21.5776 52.6679 21.5776C51.1318 21.5776 49.8819 21.091 48.9373 20.1321C47.9784 19.1732 47.5061 17.8994 47.5061 16.3204V7.53284H50.9982V15.2994C50.9982 16.182 51.2606 16.8738 51.7854 17.4033C52.2958 17.9281 52.9828 18.1905 53.8224 18.1905C54.7145 18.1905 55.4397 17.9138 56.0026 17.3747C56.556 16.8356 56.8279 16.1248 56.8279 15.247L56.8327 7.53284Z" fill="#0F1020"/>
<path d="M62.9249 20.2752C61.9374 19.4212 61.4556 18.3717 61.4556 17.1361H64.9906C64.9906 17.5702 65.148 17.9232 65.4772 18.2286C65.7921 18.5291 66.1737 18.6866 66.6317 18.6866C67.4857 18.6866 68.1536 18.1332 68.1536 17.451C68.1536 16.702 67.3902 16.1247 65.8684 15.7288C63.0442 15.0609 61.6369 13.6249 61.6512 11.4209C61.6512 10.1089 62.1235 9.06893 63.0824 8.31994C64.0269 7.57095 65.1958 7.20361 66.5745 7.20361C67.9532 7.20361 69.1506 7.60912 70.0952 8.4249C71.0398 9.24068 71.5121 10.2377 71.5121 11.4209H67.9913C67.9913 10.6719 67.3759 10.0803 66.5458 10.0803C65.7969 10.0803 65.1671 10.5908 65.1671 11.211C65.1671 11.9599 65.9686 12.5372 67.5572 12.9332C70.3147 13.6297 71.6981 15.0465 71.7077 17.1647C71.7077 18.5291 71.2211 19.6073 70.2479 20.3992C69.2603 21.1864 68.0534 21.5823 66.5936 21.5823C65.129 21.5728 63.9077 21.1434 62.9249 20.2752Z" fill="#0F1020"/>
<path d="M80.5616 7.53282V10.7244H77.7898V21.2484H74.2977V10.7244H71.6548V7.53282H74.293V4.24585L77.7851 3.48254V7.52805H80.5616V7.53282Z" fill="#0F1020"/>
<path d="M90.5419 7.53284H94.034V21.2484H90.5419V19.5787C89.4781 20.9049 88.0994 21.5776 86.3772 21.5776C84.841 21.5776 83.5911 21.091 82.6465 20.1321C81.6876 19.1732 81.2153 17.8994 81.2153 16.3204V7.53284H84.7074V15.2994C84.7074 16.182 84.9698 16.8738 85.4946 17.4033C86.0051 17.9281 86.692 18.1905 87.5317 18.1905C88.4238 18.1905 89.1489 17.9138 89.7118 17.3747C90.2652 16.8356 90.5372 16.1248 90.5372 15.247L90.5419 7.53284Z" fill="#0F1020"/>
<path d="M108.756 9.25022C110.03 10.6289 110.66 12.3368 110.66 14.3739C110.66 16.411 110.03 18.1332 108.756 19.5119C107.483 20.8906 105.894 21.5728 103.986 21.5728C102.077 21.5728 100.661 20.862 99.5204 19.4451V25.4036H96.0283V7.53279H99.5204V9.33132C100.665 7.91444 102.163 7.20361 103.986 7.20361C105.808 7.20361 107.483 7.88581 108.756 9.25022ZM103.294 18.1856C104.372 18.1856 105.264 17.8183 105.989 17.0932C106.715 16.368 107.068 15.4664 107.068 14.3882C107.068 13.31 106.715 12.4036 105.989 11.6832C105.264 10.9629 104.372 10.5908 103.294 10.5908C102.216 10.5908 101.324 10.9581 100.599 11.6832C99.8782 12.4084 99.5204 13.3148 99.5204 14.3882C99.5204 15.4616 99.8735 16.3728 100.599 17.0932C101.324 17.8135 102.216 18.1856 103.294 18.1856Z" fill="#0F1020"/>
<path d="M12.103 11.7262C11.8168 11.8407 11.5592 12.0125 11.3397 12.2319C10.8197 12.7519 10.5764 13.4961 10.6909 14.2213C10.7243 14.4598 10.9342 14.6268 11.1632 14.6268C11.1871 14.6268 11.2109 14.622 11.2348 14.622C11.4924 14.5791 11.6737 14.3358 11.6307 14.0734C11.5639 13.6488 11.7071 13.2099 12.0124 12.9094C12.1412 12.7805 12.2938 12.6804 12.4608 12.6136C12.7041 12.5134 12.8234 12.2319 12.728 11.9934C12.6278 11.7501 12.3511 11.6308 12.103 11.7262Z" fill="#FFC200"/>
<path d="M13 0C5.82018 0 0 5.82018 0 13C0 20.1798 5.82018 26 13 26C20.1798 26 26 20.1798 26 13C26 5.82018 20.1798 0 13 0ZM21.0051 11.7739L20.6235 11.8312C19.9938 11.9314 19.4738 12.5277 19.4738 13.167V18.2763L18.1666 16.9692C18.0283 16.8308 17.8088 16.8308 17.6657 16.9692L17.4939 17.1409L16.8117 16.4587C18.0283 14.6554 17.847 12.1842 16.244 10.5861C14.4312 8.77321 11.4972 8.77321 9.6844 10.5861C7.87156 12.3989 7.87156 15.3328 9.6844 17.1457C11.2826 18.7439 13.7538 18.9347 15.5571 17.7134L16.2393 18.3956L16.0675 18.5673C15.9292 18.7057 15.9292 18.9251 16.0675 19.0683L18.0283 21.0242H7.69028C7.05101 21.0242 6.52624 20.4994 6.52624 19.8602V13.167C6.52624 12.5277 6.01101 11.9266 5.37651 11.8312L4.99009 11.7739C4.36037 11.6738 4.23156 11.2492 4.70862 10.8246L12.127 4.19339C12.5993 3.76881 13.3817 3.76881 13.8587 4.19339L21.2771 10.8246C21.7637 11.2492 21.6349 11.6738 21.0051 11.7739ZM14.9035 15.8004C13.8301 16.869 12.0983 16.869 11.0297 15.8004C9.9611 14.727 9.9611 12.9952 11.0297 11.9266C12.1031 10.8532 13.8349 10.8532 14.9035 11.9266C15.9769 12.9952 15.9769 14.727 14.9035 15.8004Z" fill="#FFC200"/>
<path d="M143.65 5.35693H117.444C114.813 5.35693 112.66 7.50992 112.66 10.1409V18.5845C112.66 21.1916 114.774 23.3284 117.372 23.3675V9.77169H119.775V11.1447C120.084 10.7101 120.51 10.3465 121.053 10.0551C121.597 9.7631 122.217 9.61759 122.915 9.61759C123.728 9.61759 124.462 9.81796 125.121 10.2182C125.778 10.619 126.299 11.1881 126.682 11.9261C127.066 12.6641 127.257 13.5195 127.257 14.4918C127.257 15.464 127.066 16.3256 126.682 17.0746C126.299 17.8241 125.778 18.4046 125.121 18.8168C124.463 19.2285 123.728 19.4346 122.915 19.4346C122.217 19.4346 121.602 19.2915 121.07 19.0057C120.538 18.72 120.106 18.3593 119.775 17.9247V23.3694H143.651C146.282 23.3694 148.435 21.2165 148.435 18.5854V10.1409C148.435 7.50945 146.282 5.35693 143.651 5.35693H143.65ZM133.454 12.1575H132.819C132.064 12.1575 131.495 12.335 131.111 12.6894C130.728 13.0443 130.536 13.6621 130.536 14.5428V19.2796H128.133V9.77169H130.536V11.2477C130.845 10.7444 131.248 10.3494 131.746 10.0636C132.244 9.77789 132.813 9.63477 133.454 9.63477V12.1575ZM143.151 17.1003C142.71 17.8441 142.116 18.4194 141.366 18.8254C140.617 19.2319 139.778 19.4346 138.851 19.4346C137.925 19.4346 137.112 19.2314 136.38 18.8254C135.647 18.4194 135.073 17.8446 134.655 17.1003C134.237 16.3566 134.028 15.4984 134.028 14.5261C134.028 13.5539 134.243 12.6956 134.672 11.9519C135.101 11.2081 135.687 10.6333 136.431 10.2268C137.175 9.82082 138.004 9.61759 138.92 9.61759C139.836 9.61759 140.664 9.82082 141.408 10.2268C142.152 10.6333 142.738 11.2081 143.167 11.9519C143.596 12.6956 143.811 13.5539 143.811 14.5261C143.811 15.4984 143.59 16.3571 143.15 17.1003H143.151Z" fill="#FFC200"/>
<path d="M138.886 11.7109C138.2 11.7109 137.625 11.9542 137.161 12.4404C136.698 12.927 136.466 13.622 136.466 14.5256C136.466 15.4292 136.692 16.1247 137.144 16.6109C137.596 17.0975 138.166 17.3403 138.852 17.3403C139.287 17.3403 139.696 17.2349 140.079 17.0226C140.462 16.8107 140.768 16.4935 140.997 16.0699C141.226 15.6467 141.341 15.132 141.341 14.5251C141.341 13.6216 141.103 12.9265 140.629 12.4399C140.154 11.9538 139.573 11.7104 138.886 11.7104V11.7109Z" fill="#FFC200"/>
<path d="M121.052 16.9887C121.436 17.212 121.845 17.3236 122.279 17.3236C122.714 17.3236 123.14 17.2096 123.524 16.9801C123.907 16.7516 124.216 16.4253 124.451 16.0017C124.685 15.5785 124.803 15.0747 124.803 14.4913C124.803 13.9078 124.685 13.4246 124.451 13.0067C124.216 12.5892 123.907 12.2715 123.524 12.054C123.14 11.8369 122.726 11.7277 122.279 11.7277C121.833 11.7277 121.436 11.8393 121.052 12.0626C120.669 12.2858 120.36 12.6093 120.126 13.0324C119.891 13.4561 119.773 13.9536 119.773 14.5256C119.773 15.0976 119.891 15.5957 120.126 16.0189C120.36 16.4425 120.669 16.7655 121.052 16.9887Z" fill="#FFC200"/>
</g>
<defs>
<clipPath id="clip0_1_348">
<rect width="148.435" height="26" fill="white"/>
</clipPath>
</defs>
</svg>
