<svg width="24" height="18" viewBox="0 0 24 18" fill="none" xmlns="http://www.w3.org/2000/svg">
<path d="M5.25 5.3125C4.61719 5.3125 4.08984 4.99609 3.77344 4.46875C3.45703 3.97656 3.45703 3.30859 3.77344 2.78125C4.08984 2.28906 4.61719 1.9375 5.25 1.9375C5.84766 1.9375 6.375 2.28906 6.69141 2.78125C7.00781 3.30859 7.00781 3.97656 6.69141 4.46875C6.375 4.99609 5.84766 5.3125 5.25 5.3125ZM9.75 2.5H19.875H21V4.75H19.875H9.75H8.625V2.5H9.75ZM9.75 8.125H19.875H21V10.375H19.875H9.75H8.625V8.125H9.75ZM9.75 13.75H19.875H21V16H19.875H9.75H8.625V13.75H9.75ZM5.25 16.5625C4.61719 16.5625 4.08984 16.2461 3.77344 15.7188C3.45703 15.2266 3.45703 14.5586 3.77344 14.0312C4.08984 13.5391 4.61719 13.1875 5.25 13.1875C5.84766 13.1875 6.375 13.5391 6.69141 14.0312C7.00781 14.5586 7.00781 15.2266 6.69141 15.7188C6.375 16.2461 5.84766 16.5625 5.25 16.5625ZM6.9375 9.25C6.9375 9.88281 6.58594 10.4102 6.09375 10.7266C5.56641 11.043 4.89844 11.043 4.40625 10.7266C3.87891 10.4102 3.5625 9.88281 3.5625 9.25C3.5625 8.65234 3.87891 8.125 4.40625 7.80859C4.89844 7.49219 5.56641 7.49219 6.09375 7.80859C6.58594 8.125 6.9375 8.65234 6.9375 9.25Z" fill="white"/>
</svg>
